<svg width="24" height="22" viewBox="0 0 24 22" fill="none" xmlns="http://www.w3.org/2000/svg"><path d="M4.5 16.2712H6V17.7504H3V2.9584H1.5V19.2296H6V20.7088H0V1.4792H3V0H7.5C8.1875 0 8.84766 0.104006 9.48047 0.312018C10.1133 0.520031 10.7031 0.832049 11.25 1.24807C11.7891 0.832049 12.375 0.520031 13.0078 0.312018C13.6406 0.104006 14.3047 0 15 0H19.5V1.4792H22.5V10.9438L21 10.2735V2.9584H19.5V9.60324L18 8.92142V1.4792H15C14.4453 1.4792 13.9141 1.57165 13.4062 1.75655C12.8984 1.94145 12.4297 2.21495 12 2.57704V9.60324L10.5 10.2735V2.57704C10.0781 2.22265 9.61328 1.953 9.10547 1.7681C8.59766 1.5832 8.0625 1.4869 7.5 1.4792H4.5V16.2712ZM21 19.218L15.75 21.8182L10.5 19.218C10.5 18.9407 10.5039 18.6479 10.5117 18.3398C10.5195 18.0316 10.5508 17.7196 10.6055 17.4037C10.6602 17.0878 10.7383 16.7912 10.8398 16.5139C10.9414 16.2365 11.082 15.9784 11.2617 15.7396L9 14.7227V21.4484H7.5V14.0524L15.75 10.3544L24 14.0524L20.2383 15.7396L20.332 15.8667C20.4961 16.1055 20.6211 16.3636 20.707 16.641C20.793 16.9183 20.8594 17.1995 20.9062 17.4846C20.9531 17.7696 20.9805 18.0624 20.9883 18.3629C20.9961 18.6633 21 18.9484 21 19.218ZM15.75 11.9723L11.1211 14.0524L15.75 16.1325L20.3789 14.0524L15.75 11.9723ZM15.75 20.1656L19.5 18.3051C19.4922 18.1048 19.4766 17.9237 19.4531 17.7619C19.4297 17.6002 19.3867 17.4422 19.3242 17.2881C19.2617 17.1341 19.1992 16.9838 19.1367 16.8374C19.0742 16.6911 18.9844 16.5293 18.8672 16.3521L15.75 17.7504L12.6328 16.3521C12.5156 16.537 12.4219 16.7026 12.3516 16.849C12.2812 16.9954 12.2188 17.1418 12.1641 17.2881C12.1094 17.4345 12.0742 17.5886 12.0586 17.7504C12.043 17.9122 12.0273 18.1009 12.0117 18.3166L15.75 20.1656Z" fill="currentColor"></path></svg>