<svg width="24" height="24" viewBox="0 0 24 24" fill="none" xmlns="http://www.w3.org/2000/svg"><path d="M18 10.2676C18.5978 10.6134 19 11.2597 19 12C19 12.7403 18.5978 13.3866 18 13.7324M18 7.10001C20.2822 7.56328 22 9.58103 22 12C22 14.4189 20.2822 16.4367 18 16.9M7.53323 7.60208L11.8 4.40345C13.1185 3.41504 15 4.35538 15 6.00272V17.9973C15 19.6446 13.1185 20.585 11.8 19.5966L7.53323 16.3979C7.1871 16.1384 6.76617 15.9982 6.33358 15.9982H4C2.89543 15.9982 2 15.1032 2 13.9991V10.0009C2 8.89684 2.89543 8.00181 4 8.00181H6.33358C6.76617 8.00181 7.1871 7.86156 7.53323 7.60208Z" stroke="currentColor" stroke-width="1.5" stroke-linecap="round"></path></svg>