<svg width="24" height="24" viewBox="0 0 24 24" fill="none" xmlns="http://www.w3.org/2000/svg"><path d="M1.54839 0.682396C1.54839 1.21476 1.53387 1.36479 1.49032 1.34543C1.45645 1.33091 1.20484 1.23412 0.929032 1.12281C0.658065 1.0115 0.401613 0.924381 0.358065 0.924381C0.314516 0.924381 0.217742 0.987297 0.140323 1.06473L0 1.20992L0.00967742 8.74047L0.0241935 16.2759L2.33226 17.2002L4.64516 18.1246L4.65484 21.0623L4.66935 24L11.6129 21.222C15.4306 19.6927 18.5613 18.444 18.5661 18.444C18.5758 18.444 18.5806 19.2716 18.5806 20.2831C18.5806 21.2946 18.5661 22.1222 18.5468 22.1222C18.5226 22.1222 17.7145 21.8028 16.7419 21.4156L14.9758 20.709L14.0081 21.0962C13.2629 21.3962 13.0645 21.493 13.1371 21.5221C13.1903 21.5414 14.6081 22.1077 16.2823 22.7804L19.3306 24L19.3452 21.0623L19.3548 18.1246L21.6677 17.2002L23.9758 16.2759L23.9903 8.74047L24 1.20992L23.8597 1.06473C23.7823 0.987297 23.6855 0.924381 23.6419 0.924381C23.5984 0.924381 23.3419 1.0115 23.071 1.12281C22.7952 1.23412 22.5435 1.33091 22.5145 1.34543C22.4661 1.36479 22.4516 1.21476 22.4516 0.682396C22.4516 0.15003 22.4371 0 22.3935 0.0193596C22.3597 0.0290394 20.6274 0.566244 18.5419 1.20992C16.4613 1.8536 14.6129 2.43436 14.429 2.50212C13.8194 2.72958 13.0355 3.20387 12.571 3.62493L12.3871 3.78947V9.44707V15.1047L12.7839 14.8094C13.0016 14.6497 13.4419 14.3884 13.7661 14.2335C14.3177 13.9625 15.8468 13.4688 22.1613 11.5281L22.4274 11.4459L22.4419 6.81912L22.4516 2.19238L22.5871 2.14398C22.6597 2.11978 22.8339 2.05203 22.9742 1.99395L23.2258 1.89232V8.25166V14.611L17.6516 16.8421C14.5839 18.0714 12.0387 19.0732 12 19.0732C11.9613 19.0732 9.41613 18.0714 6.35323 16.8421L0.774194 14.611V8.25166V1.89232L1.03065 1.99395C1.16613 2.05203 1.34032 2.11978 1.41774 2.14398L1.54839 2.19238V6.81912V11.4507L5.60323 12.6993C10.1855 14.1125 10.4081 14.1996 11.3371 14.9014L11.6129 15.1095V9.45191V3.78947L11.429 3.62493C10.9887 3.22807 10.2097 2.74894 9.62903 2.52148C9.48387 2.4634 7.65484 1.88748 5.56452 1.23896C3.47419 0.595282 1.71774 0.0532379 1.65968 0.0338783L1.54839 0V0.682396ZM6.50806 4.07018C8.14839 4.5735 9.59516 5.03327 9.72097 5.09135C9.95323 5.18814 10.0645 5.3285 10.0645 5.52692C10.0645 5.65275 9.85645 5.86086 9.73065 5.86086C9.67742 5.86086 9.22742 5.73019 8.72419 5.57048C8.22581 5.41077 6.79355 4.96552 5.54032 4.58318C3.14516 3.84271 3.09677 3.82335 3.09677 3.54265C3.09677 3.3539 3.28548 3.15548 3.46935 3.15064C3.49839 3.15064 4.8629 3.56201 6.50806 4.07018ZM20.7823 3.27163C20.9274 3.41198 20.9419 3.62493 20.8161 3.77979C20.7532 3.86207 20.0613 4.08953 17.7581 4.80581C13.9355 5.98669 14.2694 5.89958 14.1097 5.79794C13.8435 5.61888 13.9065 5.2559 14.2355 5.10587C14.5065 4.98488 20.4194 3.15548 20.5548 3.15064C20.6177 3.15064 20.7194 3.20387 20.7823 3.27163ZM6.50806 6.00605C8.14839 6.50938 9.59516 6.96915 9.72097 7.02722C9.95323 7.12402 10.0645 7.26437 10.0645 7.4628C10.0645 7.58863 9.85645 7.79673 9.73065 7.79673C9.67742 7.79673 9.22742 7.66606 8.72419 7.50635C8.22581 7.34664 6.79355 6.90139 5.54032 6.51906C3.14516 5.77859 3.09677 5.75923 3.09677 5.47853C3.09677 5.28978 3.28548 5.09135 3.46935 5.08651C3.49839 5.08651 4.8629 5.49788 6.50806 6.00605ZM20.7823 5.2075C20.9274 5.34785 20.9419 5.5608 20.8161 5.71567C20.7532 5.79794 20.0613 6.02541 17.7581 6.74168C13.9355 7.92257 14.2694 7.83545 14.1097 7.73382C13.8435 7.55475 13.9065 7.19177 14.2355 7.04174C14.5065 6.92075 20.4194 5.09135 20.5548 5.08651C20.6177 5.08651 20.7194 5.13975 20.7823 5.2075ZM6.50806 7.94193C8.14839 8.44525 9.59516 8.90502 9.72097 8.9631C9.95323 9.05989 10.0645 9.20024 10.0645 9.39867C10.0645 9.5245 9.85645 9.73261 9.73065 9.73261C9.67742 9.73261 9.22742 9.60194 8.72419 9.44223C8.22581 9.28252 6.79355 8.83727 5.54032 8.45493C3.14516 7.71446 3.09677 7.6951 3.09677 7.4144C3.09677 7.22565 3.28548 7.02722 3.46935 7.02238C3.49839 7.02238 4.8629 7.43376 6.50806 7.94193ZM20.7823 7.14338C20.9274 7.28373 20.9419 7.49667 20.8161 7.65154C20.7532 7.73382 20.0468 7.96612 17.6855 8.70175C16.0065 9.2196 14.5548 9.66969 14.4532 9.69873C13.9355 9.8536 13.7371 9.20508 14.2355 8.97762C14.5065 8.85662 20.4194 7.02722 20.5548 7.02238C20.6177 7.02238 20.7194 7.07562 20.7823 7.14338ZM6.50806 9.8778C8.14839 10.3811 9.59516 10.8409 9.72097 10.899C9.95323 10.9958 10.0645 11.1361 10.0645 11.3345C10.0645 11.4604 9.85645 11.6685 9.73065 11.6685C9.67742 11.6685 9.22742 11.5378 8.72419 11.3781C8.22581 11.2184 6.79355 10.7731 5.54032 10.3908C3.14516 9.65033 3.09677 9.63097 3.09677 9.35027C3.09677 9.16152 3.28548 8.9631 3.46935 8.95826C3.49839 8.95826 4.8629 9.36963 6.50806 9.8778ZM20.7823 9.07925C20.9274 9.2196 20.9419 9.43255 20.8161 9.58742C20.7532 9.66969 20.0613 9.89716 17.7581 10.6134C13.9355 11.7943 14.2694 11.7072 14.1097 11.6056C13.8435 11.4265 13.9065 11.0635 14.2355 10.9135C14.5065 10.7925 20.4194 8.9631 20.5548 8.95826C20.6177 8.95826 20.7194 9.01149 20.7823 9.07925ZM7.74194 19.3636C8.95161 19.8475 9.95807 20.2589 9.98226 20.2783C10.0113 20.3073 5.55968 22.1222 5.45323 22.1222C5.43387 22.1222 5.41935 21.2946 5.41935 20.2783C5.41935 18.8215 5.43387 18.4392 5.48226 18.4586C5.51129 18.4731 6.53226 18.8796 7.74194 19.3636Z" fill="currentColor"></path></svg>