<svg width="24" height="24" viewBox="0 0 24 24" fill="none" xmlns="http://www.w3.org/2000/svg"><path opacity="0.946" fill-rule="evenodd" clip-rule="evenodd" d="M11.8594 0.00303518C11.9544 -0.00517138 12.0481 0.003263 12.1406 0.0283484C15.9603 1.37256 19.7729 2.73104 23.5781 4.10378C19.7585 5.48731 15.9304 6.84582 12.0938 8.17922C11.7776 8.12758 11.4651 8.04324 11.1562 7.92609C7.57252 6.66685 3.9944 5.39274 0.421875 4.10378C4.2385 2.73537 8.05102 1.36846 11.8594 0.00303518ZM11.9531 1.11682C14.6256 2.04799 17.2974 2.98458 19.9688 3.92659C20.1547 4.04226 20.1547 4.16039 19.9688 4.28098C17.3108 5.21256 14.6545 6.14915 12 7.09075C9.35817 6.15937 6.71756 5.22278 4.07812 4.28098C3.87891 4.17603 3.86328 4.05789 4.03125 3.92659C6.68161 3.00335 9.32222 2.06676 11.9531 1.11682Z" fill="currentColor"></path><path opacity="0.977" fill-rule="evenodd" clip-rule="evenodd" d="M11.8594 1.52197C12.0686 1.52691 12.2717 1.5691 12.4687 1.64854C14.7572 2.45274 17.0385 3.2712 19.3125 4.10393C16.9304 4.98118 14.5398 5.83338 12.1406 6.66057C12.0469 6.69433 11.9531 6.69433 11.8594 6.66057C9.46523 5.81591 7.07461 4.96372 4.6875 4.10393C7.0793 3.2316 9.46992 2.37095 11.8594 1.52197Z" fill="currentColor"></path><path opacity="0.964" fill-rule="evenodd" clip-rule="evenodd" d="M0 4.35718C3.90396 5.73731 7.81022 7.11268 11.7188 8.48324C11.7802 8.7747 11.8114 9.07846 11.8125 9.39452C11.8047 9.68982 11.7969 9.98518 11.7891 10.2805C7.86989 8.86157 3.94018 7.47775 0 6.12911C0 5.53845 0 4.94784 0 4.35718Z" fill="currentColor"></path><path opacity="0.964" fill-rule="evenodd" clip-rule="evenodd" d="M24 4.35718C24 4.94784 24 5.53845 24 6.12911C20.0656 7.49774 16.1358 8.88152 12.2109 10.2805C12.1875 9.69008 12.1797 9.09942 12.1875 8.50855C16.1279 7.13495 20.0654 5.75118 24 4.35718Z" fill="currentColor"></path><path opacity="0.949" fill-rule="evenodd" clip-rule="evenodd" d="M0 6.4834C3.99945 7.88388 7.99945 9.28451 12 10.6854C16.0005 9.28451 20.0005 7.88388 24 6.4834C24 7.46216 24 8.44097 24 9.41974C19.9984 10.8266 15.9984 12.2441 12 13.6724C8.00161 12.2441 4.00161 10.8266 0 9.41974C0 8.44097 0 7.46216 0 6.4834ZM0.796875 7.79969C2.05499 8.20764 3.30499 8.64637 4.54688 9.11598C4.59358 9.43482 4.6092 9.75549 4.59375 10.0779C3.34029 9.6632 2.09029 9.23288 0.84375 8.78691C0.79792 8.46239 0.782297 8.13332 0.796875 7.79969ZM23.0625 7.79969C23.1094 7.79969 23.1562 7.79969 23.2031 7.79969C23.2186 8.12208 23.2029 8.44275 23.1562 8.76159C22.75 8.91347 22.3438 9.06535 21.9375 9.21723C21.8908 8.88138 21.8752 8.5439 21.8906 8.2047C22.297 8.10795 22.6876 7.97293 23.0625 7.79969ZM20.4844 8.71097C20.5312 8.71097 20.5781 8.71097 20.625 8.71097C20.6396 9.0446 20.624 9.37367 20.5781 9.69818C19.2378 10.1779 17.8941 10.642 16.5469 11.0904C16.5323 10.7568 16.5479 10.4277 16.5938 10.1032C17.9003 9.65247 19.1972 9.18843 20.4844 8.71097ZM5.71875 9.52099C6.28036 9.71489 6.84286 9.90894 7.40625 10.1032C7.45209 10.4277 7.4677 10.7568 7.45312 11.0904C6.8722 10.915 6.29409 10.7294 5.71875 10.5335C5.71875 10.196 5.71875 9.85852 5.71875 9.52099ZM8.71875 10.5841C9.80906 10.9654 10.9028 11.3367 12 11.6979C12.6439 11.5139 13.2767 11.2945 13.8984 11.0398C13.9374 11.3786 13.9296 11.7161 13.875 12.0523C13.2276 12.3113 12.5713 12.5222 11.9062 12.6851C10.8616 12.3061 9.81473 11.9348 8.76562 11.5714C8.71978 11.2468 8.70417 10.9178 8.71875 10.5841Z" fill="currentColor"></path><path opacity="0.979" fill-rule="evenodd" clip-rule="evenodd" d="M0 9.82471C3.9403 11.1729 7.86999 12.5567 11.7891 13.9761C11.8281 15.5289 11.8203 17.0815 11.7656 18.6337C9.7627 17.9351 7.76269 17.2264 5.76563 16.5074C5.72658 15.3603 5.70314 14.2127 5.69531 13.0648C5.67188 13.0057 5.63283 12.9636 5.57813 12.9382C4.32812 12.4995 3.07813 12.0607 1.82813 11.6219C1.70977 11.5766 1.6082 11.6019 1.52344 11.6979C1.5 12.7947 1.49219 13.8916 1.5 14.9886C0.997177 14.8301 0.497175 14.6614 0 14.4823C0 12.9298 0 11.3773 0 9.82471Z" fill="currentColor"></path><path opacity="0.986" fill-rule="evenodd" clip-rule="evenodd" d="M24 9.82471C24 11.3773 24 12.9298 24 14.4823C20.0661 15.8761 16.1286 17.2599 12.1875 18.6337C12.1721 17.069 12.1877 15.508 12.2344 13.9508C16.1505 12.5518 20.0724 11.1764 24 9.82471Z" fill="currentColor"></path><path opacity="0.97" fill-rule="evenodd" clip-rule="evenodd" d="M1.82812 12.0015C3.01279 12.4167 4.20029 12.8217 5.39062 13.2165C5.40623 15.4612 5.39062 17.7057 5.34375 19.9498C4.17704 19.5242 3.00517 19.1192 1.82812 18.7348C1.82812 16.4904 1.82812 14.2459 1.82812 12.0015Z" fill="currentColor"></path><path opacity="0.946" fill-rule="evenodd" clip-rule="evenodd" d="M0 14.8872C0.490299 15.0215 0.974677 15.1818 1.45312 15.3682C1.50707 15.8452 1.51489 16.3261 1.47656 16.811C0.994575 16.6065 0.502388 16.4378 0 16.3048C0 15.8323 0 15.3597 0 14.8872Z" fill="currentColor"></path><path opacity="0.951" fill-rule="evenodd" clip-rule="evenodd" d="M24 14.8872C24 15.3597 24 15.8323 24 16.3048C23.3513 16.4932 22.7107 16.7126 22.0781 16.9629C22.0156 16.4904 22.0156 16.0178 22.0781 15.5454C22.7107 15.2951 23.3513 15.0757 24 14.8872Z" fill="currentColor"></path><path opacity="0.923" fill-rule="evenodd" clip-rule="evenodd" d="M21.5625 15.6973C21.6094 15.6973 21.6562 15.6973 21.7031 15.6973C21.7031 16.1698 21.7031 16.6423 21.7031 17.1148C20.9815 17.3408 20.2628 17.5771 19.5469 17.8236C19.5469 17.3511 19.5469 16.8785 19.5469 16.406C20.229 16.1885 20.9009 15.9523 21.5625 15.6973Z" fill="currentColor"></path><path opacity="0.944" fill-rule="evenodd" clip-rule="evenodd" d="M19.125 16.5579C19.1872 16.7747 19.2184 17.0109 19.2188 17.2666C19.2031 17.5029 19.1875 17.7391 19.1719 17.9754C18.4867 18.2221 17.7991 18.4584 17.1094 18.6842C17.1094 18.2117 17.1094 17.7391 17.1094 17.2666C17.7915 17.0491 18.4634 16.8129 19.125 16.5579Z" fill="currentColor"></path><path opacity="0.921" fill-rule="evenodd" clip-rule="evenodd" d="M0 16.6589C0.202983 16.7011 0.398295 16.7686 0.585937 16.8614C0.617189 17.3339 0.617189 17.8065 0.585937 18.279C0.394417 18.1998 0.199105 18.1323 0 18.0765C0 17.604 0 17.1314 0 16.6589Z" fill="currentColor"></path><path opacity="0.926" fill-rule="evenodd" clip-rule="evenodd" d="M23.9999 16.6589C23.9999 17.1314 23.9999 17.604 23.9999 18.0765C23.8027 18.1391 23.6074 18.2065 23.414 18.279C23.375 17.8056 23.3828 17.3331 23.4374 16.8614C23.6226 16.7835 23.8101 16.716 23.9999 16.6589Z" fill="currentColor"></path><path opacity="0.938" fill-rule="evenodd" clip-rule="evenodd" d="M5.71874 16.9124C6.09838 17.0096 6.47338 17.1277 6.84374 17.2667C6.89052 17.7381 6.90617 18.2106 6.89061 18.6843C6.5001 18.5746 6.11727 18.4396 5.74217 18.2793C5.71874 17.8239 5.71096 17.3683 5.71874 16.9124Z" fill="currentColor"></path><path opacity="0.876" fill-rule="evenodd" clip-rule="evenodd" d="M0.937493 17.0134C1.11652 17.0328 1.2884 17.0834 1.45312 17.1653C1.51562 17.6378 1.51562 18.1104 1.45312 18.5829C1.28644 18.5201 1.12238 18.4526 0.960931 18.3803C0.937503 17.925 0.929693 17.4694 0.937493 17.0134Z" fill="currentColor"></path><path opacity="0.924" fill-rule="evenodd" clip-rule="evenodd" d="M22.875 17.0134C22.9375 17.0134 23 17.0134 23.0625 17.0134C23.0774 17.4818 23.0618 17.9458 23.0156 18.4057C22.3293 18.6556 21.6418 18.9002 20.9531 19.1397C20.8906 18.6672 20.8906 18.1947 20.9531 17.7222C21.6048 17.5045 22.2454 17.2682 22.875 17.0134Z" fill="currentColor"></path><path opacity="0.923" fill-rule="evenodd" clip-rule="evenodd" d="M7.21875 17.4185C7.93467 17.665 8.65341 17.9012 9.375 18.1272C9.375 18.5997 9.375 19.0723 9.375 19.5448C8.65341 19.3188 7.93467 19.0825 7.21875 18.836C7.21875 18.3635 7.21875 17.891 7.21875 17.4185Z" fill="currentColor"></path><path opacity="0.925" fill-rule="evenodd" clip-rule="evenodd" d="M16.6875 17.4185C16.7497 17.6353 16.7809 17.8715 16.7812 18.1272C16.7656 18.3635 16.75 18.5997 16.7343 18.836C16.0422 19.1133 15.3391 19.3496 14.625 19.5448C14.6101 19.0764 14.6257 18.6124 14.6718 18.1525C15.3505 17.9111 16.0224 17.6663 16.6875 17.4185Z" fill="currentColor"></path><path opacity="0.945" fill-rule="evenodd" clip-rule="evenodd" d="M20.4375 17.874C20.4844 17.874 20.5312 17.874 20.5781 17.874C20.5781 18.3465 20.5781 18.8191 20.5781 19.2916C19.8883 19.5174 19.2008 19.7536 18.5156 20.0003C18.4531 19.5278 18.4531 19.0553 18.5156 18.5828C19.1673 18.3651 19.8079 18.1288 20.4375 17.874Z" fill="currentColor"></path><path opacity="0.943" fill-rule="evenodd" clip-rule="evenodd" d="M9.70309 18.2791C10.4005 18.5358 11.1037 18.7721 11.8125 18.9878C11.8125 19.4603 11.8125 19.9329 11.8125 20.4054C11.1219 20.1933 10.4344 19.9655 9.74997 19.7219C9.7038 19.2452 9.68819 18.7642 9.70309 18.2791Z" fill="currentColor"></path><path opacity="0.941" fill-rule="evenodd" clip-rule="evenodd" d="M14.2031 18.2791C14.2653 18.4959 14.2966 18.7321 14.2969 18.9878C14.2891 19.2241 14.2813 19.4603 14.2734 19.6966C13.583 19.9396 12.8955 20.1927 12.2109 20.456C12.1797 19.9835 12.1797 19.5109 12.2109 19.0385C12.8806 18.789 13.5447 18.5359 14.2031 18.2791Z" fill="currentColor"></path><path opacity="0.95" fill-rule="evenodd" clip-rule="evenodd" d="M0 18.4314C0.640514 18.6535 1.28114 18.8814 1.92188 19.1149C1.97582 19.5919 1.98364 20.0728 1.94531 20.5577C1.30177 20.3064 0.65333 20.0701 0 19.8489C0 19.3764 0 18.9039 0 18.4314Z" fill="currentColor"></path><path opacity="0.952" fill-rule="evenodd" clip-rule="evenodd" d="M24 18.4314C24 18.9039 24 19.3764 24 19.8489C23.3474 20.0698 22.6989 20.3061 22.0546 20.5577C22.0163 20.0728 22.0241 19.5919 22.0781 19.1149C22.7188 18.8814 23.3595 18.6535 24 18.4314Z" fill="currentColor"></path><path opacity="0.932" fill-rule="evenodd" clip-rule="evenodd" d="M5.71875 18.6841C6.48155 18.9474 7.24716 19.2006 8.01562 19.4435C8.01562 19.916 8.01562 20.3885 8.01562 20.861C7.24716 20.6181 6.48155 20.365 5.71875 20.1016C5.71875 19.6291 5.71875 19.1566 5.71875 18.6841Z" fill="currentColor"></path><path opacity="0.941" fill-rule="evenodd" clip-rule="evenodd" d="M18 18.7346C18.0622 18.9515 18.0934 19.1877 18.0938 19.4434C18.0781 19.6797 18.0625 19.9159 18.0469 20.1522C17.3674 20.4193 16.6799 20.6555 15.9844 20.8609C15.9844 20.3884 15.9844 19.9159 15.9844 19.4434C16.6724 19.2463 17.3442 19.01 18 18.7346Z" fill="currentColor"></path><path opacity="0.922" fill-rule="evenodd" clip-rule="evenodd" d="M2.29683 19.2415C3.00158 19.4839 3.70471 19.737 4.4062 20.0009C4.4687 20.4734 4.4687 20.9459 4.4062 21.4184C3.7187 21.1653 3.03121 20.9121 2.3437 20.659C2.29691 20.1877 2.28129 19.7152 2.29683 19.2415Z" fill="currentColor"></path><path opacity="0.919" fill-rule="evenodd" clip-rule="evenodd" d="M21.6094 19.2415C21.6716 19.4583 21.7028 19.6945 21.7031 19.9502C21.6875 20.1865 21.6718 20.4227 21.6562 20.659C20.9687 20.9121 20.2813 21.1653 19.5937 21.4184C19.5313 20.9459 19.5313 20.4734 19.5937 20.0009C20.2737 19.7561 20.9456 19.503 21.6094 19.2415Z" fill="currentColor"></path><path opacity="0.938" fill-rule="evenodd" clip-rule="evenodd" d="M8.34371 19.5952C9.01501 19.8312 9.68687 20.0675 10.3593 20.304C10.4218 20.7765 10.4218 21.249 10.3593 21.7215C9.70013 21.4955 9.04388 21.2592 8.39059 21.0128C8.3438 20.5414 8.32815 20.0689 8.34371 19.5952Z" fill="currentColor"></path><path opacity="0.938" fill-rule="evenodd" clip-rule="evenodd" d="M15.5625 19.5952C15.6247 19.812 15.6559 20.0483 15.6562 20.304C15.6406 20.5403 15.625 20.7765 15.6094 21.0128C14.9561 21.2592 14.2998 21.4955 13.6406 21.7215C13.5781 21.249 13.5781 20.7765 13.6406 20.304C14.2858 20.0661 14.9264 19.8299 15.5625 19.5952Z" fill="currentColor"></path><path opacity="0.946" fill-rule="evenodd" clip-rule="evenodd" d="M4.78122 20.1526C5.47647 20.3579 6.16398 20.5941 6.84372 20.8614C6.89833 21.333 6.90615 21.8055 6.86715 22.2789C6.18873 22.0347 5.50905 21.79 4.82809 21.5448C4.78192 21.085 4.76631 20.6209 4.78122 20.1526Z" fill="currentColor"></path><path opacity="0.945" fill-rule="evenodd" clip-rule="evenodd" d="M19.0312 20.1526C19.0937 20.1526 19.1563 20.1526 19.2187 20.1526C19.2187 20.6251 19.2187 21.0976 19.2187 21.5701C18.5232 21.7755 17.8357 22.0117 17.1562 22.2789C17.0938 21.8064 17.0938 21.3339 17.1562 20.8614C17.7894 20.6335 18.4144 20.3973 19.0312 20.1526Z" fill="currentColor"></path><path opacity="0.923" fill-rule="evenodd" clip-rule="evenodd" d="M10.7344 20.4558C11.0787 20.5601 11.4224 20.6697 11.7656 20.7849C11.8274 21.2628 11.8274 21.7437 11.7656 22.2277C11.427 22.089 11.0833 21.9708 10.7344 21.8734C10.7344 21.4009 10.7344 20.9283 10.7344 20.4558Z" fill="currentColor"></path><path opacity="0.921" fill-rule="evenodd" clip-rule="evenodd" d="M13.125 20.4558C13.1719 20.4558 13.2187 20.4558 13.2656 20.4558C13.2656 20.9283 13.2656 21.4009 13.2656 21.8734C12.9167 21.9708 12.5729 22.089 12.2344 22.2277C12.1719 21.7552 12.1719 21.2827 12.2344 20.8102C12.5395 20.7005 12.8363 20.5824 13.125 20.4558Z" fill="currentColor"></path><path opacity="0.923" fill-rule="evenodd" clip-rule="evenodd" d="M7.21875 21.0132C7.94034 21.2392 8.65908 21.4755 9.375 21.722C9.375 22.1945 9.375 22.667 9.375 23.1395C8.6588 22.8929 7.94002 22.6566 7.21875 22.4307C7.21875 21.9582 7.21875 21.4857 7.21875 21.0132Z" fill="currentColor"></path><path opacity="0.926" fill-rule="evenodd" clip-rule="evenodd" d="M16.6406 21.0132C16.6875 21.0132 16.7344 21.0132 16.7812 21.0132C16.7812 21.4857 16.7812 21.9582 16.7812 22.4307C16.0597 22.6567 15.3409 22.893 14.625 23.1395C14.625 22.667 14.625 22.1945 14.625 21.722C15.3072 21.5045 15.979 21.2682 16.6406 21.0132Z" fill="currentColor"></path><path opacity="0.942" fill-rule="evenodd" clip-rule="evenodd" d="M9.70312 21.8738C10.3929 22.0996 11.0804 22.3358 11.7656 22.5826C11.8124 23.0539 11.8281 23.5264 11.8125 24.0001C11.1094 23.7638 10.4062 23.5276 9.70312 23.2913C9.70312 22.8188 9.70312 22.3463 9.70312 21.8738Z" fill="currentColor"></path><path opacity="0.941" fill-rule="evenodd" clip-rule="evenodd" d="M14.1562 21.8738C14.2031 21.8738 14.25 21.8738 14.2969 21.8738C14.2969 22.3463 14.2969 22.8188 14.2969 23.2913C13.5938 23.5276 12.8906 23.7638 12.1875 24.0001C12.1875 23.5276 12.1875 23.055 12.1875 22.5826C12.8571 22.3752 13.5133 22.139 14.1562 21.8738Z" fill="currentColor"></path></svg>