<svg width="24" height="24" viewBox="0 0 24 24" fill="none" xmlns="http://www.w3.org/2000/svg"><path d="M10.0887 1.74194L8.34677 3.48387H6.03387H3.72097L3.60484 3.60484L3.48387 3.72097V6.03387V8.34677L1.74194 10.0887C0.125806 11.7048 0 11.8452 0 12C0 12.1548 0.125806 12.2952 1.74194 13.9113L3.48387 15.6532V17.9661V20.279L3.60484 20.3952L3.72097 20.5161H6.03387H8.34677L10.0887 22.2581C11.7048 23.8742 11.8452 24 12 24C12.1548 24 12.2952 23.8742 13.9113 22.2581L15.6532 20.5161H17.9661H20.279L20.3952 20.3952L20.5161 20.279V17.9661V15.6532L22.2581 13.9113C23.8742 12.2952 24 12.1548 24 12C24 11.8452 23.8742 11.7048 22.2581 10.0887L20.5161 8.34677V6.03387V3.72097L20.3952 3.60484L20.279 3.48387H17.9661H15.6532L13.9113 1.74194C12.2952 0.125807 12.1548 0 12 0C11.8452 0 11.7048 0.125807 10.0887 1.74194ZM13.2823 2.22581L14.5403 3.48387H12H9.45968L10.7177 2.22581C11.4097 1.53387 11.9855 0.967741 12 0.967741C12.0145 0.967741 12.5903 1.53387 13.2823 2.22581ZM7.54839 4.27258C7.54839 4.27742 6.80806 5.02258 5.90323 5.92742L4.25806 7.57258V5.9129V4.25806H5.90323C6.80806 4.25806 7.54839 4.2629 7.54839 4.27258ZM19.7419 5.90322C19.7419 6.80806 19.7371 7.54839 19.7274 7.54839C19.7226 7.54839 18.9774 6.80806 18.0726 5.90322L16.4274 4.25806H18.0871H19.7419V5.90322ZM11.5645 6.71129C11.1968 6.9871 10.5677 7.68387 10.3355 8.07097C8.74839 10.7371 10.1806 14.1774 13.2048 14.9565C14.279 15.2371 15.6194 15.0581 16.5629 14.5113L16.8968 14.3226L16.7226 14.6419C16.2048 15.5806 15.3871 16.3548 14.3952 16.8484C12.1258 17.9806 9.3629 17.3661 7.77097 15.3774C6.47903 13.7661 6.22258 11.5161 7.1129 9.64355C7.37903 9.08226 7.64516 8.7 8.12419 8.21129C8.9371 7.37419 9.97742 6.83226 11.1194 6.65806C11.7484 6.55645 11.7629 6.56129 11.5645 6.71129ZM14.8016 8.4629L15.0629 8.9371L15.5371 9.19839C15.8032 9.33871 16.0161 9.46935 16.0161 9.48387C16.0161 9.49839 15.8032 9.62903 15.5371 9.76935L15.0629 10.0306L14.8016 10.5048C14.6613 10.771 14.5306 10.9839 14.5161 10.9839C14.5016 10.9839 14.371 10.7661 14.2258 10.5L13.9645 10.021L13.4903 9.76452C13.229 9.62903 13.0161 9.49839 13.0161 9.48387C13.0161 9.46935 13.229 9.33871 13.4952 9.19839L13.9694 8.9371L14.2306 8.4629C14.371 8.19677 14.5016 7.98387 14.5161 7.98387C14.5306 7.98387 14.6613 8.19677 14.8016 8.4629ZM3.48387 12.0097V14.5403L2.21613 13.2726L0.943548 12L2.20161 10.7419C2.89355 10.05 3.46452 9.48387 3.46935 9.48387C3.47903 9.48387 3.48387 10.621 3.48387 12.0097ZM21.7839 13.2677L20.5161 14.5403V12V9.45968L21.7839 10.7323L23.0565 12L21.7839 13.2677ZM5.92742 18.0968L7.57258 19.7419H5.9129H4.25806V18.0968C4.25806 17.1919 4.2629 16.4516 4.27258 16.4516C4.27742 16.4516 5.02258 17.1919 5.92742 18.0968ZM19.7419 18.0968V19.7419H18.0871H16.4274L18.0726 18.0968C18.9774 17.1919 19.7226 16.4516 19.7274 16.4516C19.7371 16.4516 19.7419 17.1919 19.7419 18.0968ZM13.2677 21.7839L12 23.0565L10.7323 21.7839L9.45968 20.5161H12H14.5403L13.2677 21.7839Z" fill="currentColor"></path></svg>