<svg width="24" height="24" viewBox="0 0 24 24" fill="none" xmlns="http://www.w3.org/2000/svg"><path opacity="0.951" fill-rule="evenodd" clip-rule="evenodd" d="M8.83933 0.00374435C9.46456 -0.00624409 10.0896 0.00375035 10.7143 0.0337397C11.2846 0.152485 11.6507 0.522424 11.8125 1.14357C11.8838 1.63989 11.9106 2.13981 11.8929 2.64333C10.4822 2.64333 9.07146 2.64333 7.66076 2.64333C7.63338 2.0749 7.67801 1.51499 7.79469 0.963595C8.01535 0.465654 8.36356 0.1457 8.83933 0.00374435Z" fill="currentColor"></path><path opacity="0.929" fill-rule="evenodd" clip-rule="evenodd" d="M7.76782 3.66307C9.08048 3.58334 10.4019 3.58334 11.7321 3.66307C11.5297 4.27641 11.2708 4.85634 10.9553 5.4028C10.7614 5.67137 10.5114 5.83137 10.2053 5.88272C9.40218 5.52242 8.70575 4.9825 8.11604 4.26297C7.98532 4.06932 7.86929 3.86937 7.76782 3.66307Z" fill="currentColor"></path><path opacity="0.977" fill-rule="evenodd" clip-rule="evenodd" d="M7.12504 4.56299C7.79222 5.35888 8.55111 6.03876 9.40183 6.60267C10.0552 8.57774 10.6981 10.5574 11.3304 12.5417C12.0683 13.001 12.8272 13.421 13.6072 13.8015C13.625 13.8515 13.6429 13.9016 13.6608 13.9515C13.5303 14.4298 13.3785 14.8997 13.2054 15.3613C12.3529 15.0602 11.4868 14.8102 10.6072 14.6114C10.4934 14.5441 10.3952 14.4541 10.3125 14.3415C9.69835 13.3358 9.06438 12.3459 8.41076 11.3719C8.0357 11.212 7.80358 11.352 7.71433 11.7919C7.72102 11.8895 7.74781 11.9795 7.79469 12.0618C8.40181 13.0217 9.00899 13.9815 9.61611 14.9414C9.76981 15.1336 9.93942 15.3035 10.125 15.4513C11.8657 15.8736 13.5622 16.4534 15.2143 17.191C15.4597 17.3033 15.683 17.4532 15.884 17.6409C16.0692 18.4528 16.1049 19.2727 15.9911 20.1006C15.9191 20.612 15.7137 21.0419 15.375 21.3904C14.0294 21.4592 12.6811 21.4892 11.3304 21.4803C9.97965 21.4892 8.63142 21.4592 7.28576 21.3904C7.10094 21.1865 7.02952 20.9365 7.07147 20.6405C7.02952 20.3445 7.10094 20.0945 7.28576 19.8906C8.55251 19.6042 9.82038 19.3242 11.0893 19.0507C11.5051 18.9064 11.6212 18.6165 11.4375 18.1809C11.3892 18.1088 11.3267 18.0588 11.25 18.0309C9.12502 18.0109 7.00006 17.9909 4.87504 17.9709C4.40158 17.3803 4.10694 16.6904 3.99111 15.9012C3.89544 12.619 4.2526 9.39943 5.06254 6.24273C5.22127 5.72495 5.51592 5.33501 5.94647 5.07291C6.32694 4.84788 6.71977 4.67793 7.12504 4.56299Z" fill="currentColor"></path><path opacity="0.903" fill-rule="evenodd" clip-rule="evenodd" d="M14.4642 14.2815C15.3672 14.5629 15.7065 15.2228 15.4821 16.2612C15.0595 16.0546 14.6309 15.8646 14.1964 15.6913C14.1467 15.668 14.1109 15.628 14.0892 15.5713C14.2414 15.1502 14.3664 14.7203 14.4642 14.2815Z" fill="currentColor"></path><path opacity="0.97" fill-rule="evenodd" clip-rule="evenodd" d="M1.875 19.0208C2.37627 19.0008 2.87627 19.0209 3.375 19.0807C3.06816 19.4142 2.79138 19.7741 2.54464 20.1606C2.25559 20.8505 2.32702 21.4904 2.75893 22.0803C3.34679 22.5499 3.945 22.5599 4.55357 22.1103C4.80359 21.8503 5.05355 21.5903 5.30357 21.3304C5.60716 21.2904 5.9107 21.2904 6.21429 21.3304C6.40221 21.9008 6.75938 22.2607 7.28571 22.4102C9.96429 22.4502 12.6429 22.4502 15.3214 22.4102C15.7819 22.2976 16.1479 22.0277 16.4196 21.6004C16.8044 20.7958 16.9741 19.9359 16.9286 19.0208C18.7679 19.0107 20.6072 19.0208 22.4464 19.0507C23.0019 20.6868 23.5197 22.3366 24 24C16 24 7.99998 24 0 24C0.610029 22.3337 1.23503 20.674 1.875 19.0208Z" fill="currentColor"></path><path opacity="0.941" fill-rule="evenodd" clip-rule="evenodd" d="M4.55354 19.0208C5.32159 19.0108 6.08949 19.0208 6.85711 19.0508C6.46197 19.3437 6.22979 19.7536 6.16068 20.2807C5.87997 20.2851 5.59422 20.2951 5.30354 20.3106C5.06632 20.3525 4.85204 20.4524 4.66068 20.6106C4.4464 20.8506 4.23211 21.0905 4.01782 21.3305C3.59166 21.6227 3.34167 21.5027 3.26782 20.9705C3.26752 20.8326 3.29431 20.7026 3.34818 20.5806C3.74118 20.0506 4.14297 19.5307 4.55354 19.0208Z" fill="currentColor"></path></svg>