<svg width="21" height="21" viewBox="0 0 21 21" fill="none" xmlns="http://www.w3.org/2000/svg"><path d="M10.5 0C16.2991 0 21 4.70085 21 10.5C21 16.2991 16.2991 21 10.5 21C4.70085 21 0 16.2991 0 10.5C0 4.70085 4.70085 0 10.5 0ZM10.5 14.7C10.2215 14.7 9.95445 14.8106 9.75754 15.0075C9.56063 15.2044 9.45 15.4715 9.45 15.75C9.45 16.0285 9.56063 16.2955 9.75754 16.4925C9.95445 16.6894 10.2215 16.8 10.5 16.8C10.7785 16.8 11.0455 16.6894 11.2425 16.4925C11.4394 16.2955 11.55 16.0285 11.55 15.75C11.55 15.4715 11.4394 15.2044 11.2425 15.0075C11.0455 14.8106 10.7785 14.7 10.5 14.7ZM10.5 4.725C9.49052 4.725 8.52238 5.12601 7.80857 5.83982C7.09476 6.55364 6.69375 7.52177 6.69375 8.53125C6.69375 8.80973 6.80437 9.0768 7.00129 9.27371C7.1982 9.47062 7.46527 9.58125 7.74375 9.58125C8.02223 9.58125 8.2893 9.47062 8.48621 9.27371C8.68312 9.0768 8.79375 8.80973 8.79375 8.53125C8.7941 8.22154 8.87874 7.91776 9.03859 7.65249C9.19845 7.38722 9.42749 7.17047 9.70116 7.02547C9.97484 6.88046 10.2828 6.81269 10.5921 6.8294C10.9013 6.84611 11.2002 6.94669 11.4567 7.12034C11.7131 7.29399 11.9175 7.53417 12.0478 7.81512C12.1781 8.09607 12.2295 8.4072 12.1965 8.71514C12.1635 9.02309 12.0473 9.31624 11.8603 9.56315C11.6733 9.81007 11.4227 10.0014 11.1352 10.1167C10.4254 10.4002 9.45 11.1269 9.45 12.3375V12.6C9.45 12.8785 9.56063 13.1455 9.75754 13.3425C9.95445 13.5394 10.2215 13.65 10.5 13.65C10.7785 13.65 11.0455 13.5394 11.2425 13.3425C11.4394 13.1455 11.55 12.8785 11.55 12.6C11.55 12.3438 11.6025 12.2157 11.824 12.1065L11.9154 12.0645C12.7353 11.7347 13.4148 11.13 13.8377 10.354C14.2605 9.57798 14.4002 8.67907 14.2329 7.81135C14.0655 6.94363 13.6016 6.16115 12.9205 5.59804C12.2394 5.03494 11.3837 4.72629 10.5 4.725Z" fill="currentColor"></path></svg>