<svg width="24" height="24" viewBox="0 0 24 24" fill="none" xmlns="http://www.w3.org/2000/svg"><path d="M11.1972 0.0118999C11.1189 0.0215855 10.8401 0.0554886 10.5858 0.084547C8.06224 0.365456 5.57779 1.55205 3.67044 3.37311C1.68972 5.26681 0.457276 7.69811 0.0660238 10.4927C-0.0220079 11.0932 -0.0220079 12.8949 0.0660238 13.4955C0.383916 15.7718 1.21533 17.7042 2.65318 19.5253C3.05421 20.0338 4.18884 21.1236 4.73171 21.5256C5.96415 22.4458 7.30908 23.119 8.69803 23.521C12.1508 24.5138 15.8824 23.9472 18.851 21.9711C21.3355 20.3196 23.1548 17.7575 23.8591 14.9242C24.0547 14.1251 24.0498 14.0767 23.8248 14.6191C21.893 19.225 16.9877 21.8452 12.053 20.9008C6.00328 19.7432 2.22769 13.6989 3.89051 7.82404C4.76594 4.72437 7.02053 2.20588 10.0234 0.975704C10.7961 0.65605 11.784 0.389671 12.591 0.283121L12.8844 0.239531V2.28338V4.33206L12.7377 4.39018C12.5323 4.47252 12.2291 4.82607 12.1606 5.05855C12.0481 5.43148 11.965 5.40726 13.2757 5.40726C14.5864 5.40726 14.5032 5.43148 14.3907 5.05855C14.3223 4.82607 14.0191 4.47252 13.8137 4.39018L13.6669 4.33206V2.25432V0.176569L13.9261 0.171726C14.1658 0.162039 14.156 0.162039 13.7647 0.0990772C13.3539 0.0361156 11.4808 -0.0268459 11.1972 0.0118999Z" fill="#004440"></path><path d="M18.6603 2.25426L18.3962 2.7289L17.9169 2.99043C17.6479 3.13089 17.4327 3.26166 17.4327 3.27618C17.4327 3.29071 17.6479 3.42148 17.912 3.55709L18.3913 3.81378L18.6554 4.29326C18.8021 4.55964 18.9342 4.77759 18.9488 4.77759C18.9635 4.77759 19.0956 4.56449 19.2374 4.29811L19.5015 3.82347L19.9808 3.56194C20.2498 3.42148 20.4649 3.29071 20.4649 3.27618C20.4649 3.26166 20.2498 3.13089 19.9808 2.99043L19.5015 2.7289L19.2374 2.25426C19.0956 1.98788 18.9635 1.77478 18.9488 1.77478C18.9342 1.77478 18.8021 1.98788 18.6603 2.25426Z" fill="#004440"></path><path d="M10.7081 6.57448C9.74955 6.85054 9.30939 6.95225 9.10399 6.95709C8.86924 6.95709 8.80077 6.97646 8.70295 7.07817C8.54156 7.23316 8.54156 7.45595 8.70295 7.61093C8.80077 7.71264 8.86924 7.73201 9.09421 7.73201H9.36319V11.2191V14.7063H9.09421C8.86924 14.7063 8.80077 14.7256 8.70295 14.8273C8.54156 14.9823 8.54156 15.2051 8.70295 15.3601C8.80077 15.4618 8.86924 15.4812 9.09421 15.4812C9.28983 15.4812 9.75933 15.5926 10.7326 15.8686L12.0971 16.2561H13.2757H14.4544L15.8189 15.8686C16.7921 15.5926 17.2616 15.4812 17.4572 15.4812C17.6822 15.4812 17.7507 15.4618 17.8485 15.3601C18.0099 15.2051 18.0099 14.9823 17.8485 14.8273C17.7507 14.7256 17.6822 14.7063 17.4572 14.7063H17.1882V11.2191V7.73201H17.4572C17.7849 7.73201 17.9707 7.59156 17.9707 7.34455C17.9707 7.25253 17.9267 7.15082 17.8485 7.07817C17.7507 6.97646 17.6822 6.95709 17.4572 6.95709C17.2616 6.95709 16.7921 6.8457 15.8189 6.56963L14.4544 6.18217L13.2415 6.18702L12.0286 6.19186L10.7081 6.57448ZM16.4057 9.23826V10.7445L16.2346 10.5944C16.1367 10.512 16.0438 10.4442 16.0243 10.4442C15.9509 10.4442 15.6721 10.6719 15.5254 10.8559C15.2515 11.1949 15.232 11.3644 15.232 13.1177V14.7063H14.6451H14.0582V13.1177C14.0582 11.3596 14.0387 11.1949 13.7599 10.8511C13.6816 10.7493 13.5349 10.6137 13.442 10.5459L13.2757 10.4297L13.1094 10.5459C13.0165 10.6137 12.8698 10.7493 12.7915 10.8511C12.5128 11.1949 12.4932 11.3596 12.4932 13.1177V14.7063H11.9063H11.3195V13.1177C11.3195 11.3644 11.2999 11.1949 11.026 10.8559C10.8793 10.6719 10.6005 10.4442 10.5272 10.4442C10.5076 10.4442 10.4147 10.512 10.3169 10.5944L10.1457 10.7445V9.23826V7.73201H13.2757H16.4057V9.23826Z" fill="#004440"></path><path d="M11.833 8.62801C11.7156 8.7394 11.7107 8.77815 11.7107 9.28185C11.7107 9.78554 11.7156 9.82429 11.833 9.93568C11.9063 10.0132 12.009 10.0568 12.1019 10.0568C12.1949 10.0568 12.2976 10.0132 12.3709 9.93568C12.4883 9.82429 12.4932 9.78554 12.4932 9.28185C12.4932 8.77815 12.4883 8.7394 12.3709 8.62801C12.2976 8.55052 12.1949 8.50693 12.1019 8.50693C12.009 8.50693 11.9063 8.55052 11.833 8.62801Z" fill="#004440"></path><path d="M14.1805 8.62801C14.0631 8.7394 14.0582 8.77815 14.0582 9.28185C14.0582 9.78554 14.0631 9.82429 14.1805 9.93568C14.2539 10.0132 14.3566 10.0568 14.4495 10.0568C14.5424 10.0568 14.6451 10.0132 14.7185 9.93568C14.8358 9.82429 14.8407 9.78554 14.8407 9.28185C14.8407 8.77815 14.8358 8.7394 14.7185 8.62801C14.6451 8.55052 14.5424 8.50693 14.4495 8.50693C14.3566 8.50693 14.2539 8.55052 14.1805 8.62801Z" fill="#004440"></path><path d="M6.35545 9.01544C6.25275 9.11231 6.23319 9.18011 6.23319 9.4029V9.66928H5.9642C5.63653 9.66928 5.45068 9.80973 5.45068 10.0567C5.45068 10.3037 5.63653 10.4442 5.9642 10.4442H6.23319V10.7106C6.23319 11.0351 6.37502 11.2191 6.62444 11.2191C6.87386 11.2191 7.01569 11.0351 7.01569 10.7106V10.4442H7.28468C7.61235 10.4442 7.7982 10.3037 7.7982 10.0567C7.7982 9.80973 7.61235 9.66928 7.28468 9.66928H7.01569V9.4029C7.01569 9.07841 6.87386 8.89436 6.62444 8.89436C6.53152 8.89436 6.42881 8.93795 6.35545 9.01544Z" fill="#004440"></path><path d="M20.4404 12.5026C20.3377 12.5995 20.3181 12.6673 20.3181 12.8901V13.1565H20.0492C19.7215 13.1565 19.5356 13.2969 19.5356 13.5439C19.5356 13.7909 19.7215 13.9314 20.0492 13.9314H20.3181V14.1978C20.3181 14.5223 20.46 14.7063 20.7094 14.7063C20.9588 14.7063 21.1007 14.5223 21.1007 14.1978V13.9314H21.3696C21.6973 13.9314 21.8832 13.7909 21.8832 13.5439C21.8832 13.2969 21.6973 13.1565 21.3696 13.1565H21.1007V12.8901C21.1007 12.5656 20.9588 12.3815 20.7094 12.3815C20.6165 12.3815 20.5138 12.4251 20.4404 12.5026Z" fill="#004440"></path><path d="M12.1019 17.1086C12.1019 17.6317 12.7133 18.1935 13.2757 18.1935C13.8381 18.1935 14.4494 17.6317 14.4494 17.1086C14.4494 17.0408 14.3272 17.0311 13.2757 17.0311C12.2242 17.0311 12.1019 17.0408 12.1019 17.1086Z" fill="#004440"></path></svg>