<svg width="24" height="24" viewBox="0 0 24 24" fill="none" xmlns="http://www.w3.org/2000/svg"><path opacity="0.942" fill-rule="evenodd" clip-rule="evenodd" d="M11.7188 0.000586509C13.4009 -0.021013 14.8696 0.553973 16.125 1.72554C16.2326 1.89041 16.3576 2.04041 16.5 2.17553C14.278 1.45504 12.0124 1.27171 9.70312 1.62555C8.95233 1.755 8.21794 1.93833 7.5 2.17553C8.24067 1.22033 9.17817 0.587012 10.3125 0.27558C10.7833 0.155883 11.2521 0.06422 11.7188 0.000586509Z" fill="currentColor"></path><path opacity="0.882" fill-rule="evenodd" clip-rule="evenodd" d="M11.1562 1.80057C12.7803 1.71879 14.3741 1.91045 15.9375 2.37556C16.4715 2.56858 16.9559 2.85191 17.3906 3.22554C17.577 3.43117 17.6786 3.67283 17.6953 3.95052C17.1296 3.38619 16.4655 3.0112 15.7031 2.82555C13.2851 2.2115 10.8632 2.19484 8.4375 2.77555C7.62328 2.96388 6.91237 3.35554 6.30469 3.95052C6.32925 3.62324 6.46205 3.34825 6.70312 3.12554C7.43822 2.58392 8.2507 2.23393 9.14062 2.07556C9.81558 1.95044 10.4875 1.85878 11.1562 1.80057Z" fill="currentColor"></path><path opacity="0.888" fill-rule="evenodd" clip-rule="evenodd" d="M11.2033 2.70055C12.7258 2.6318 14.2258 2.79013 15.7033 3.17553C16.2007 3.3245 16.6694 3.54117 17.1095 3.82552C17.4681 4.07896 17.6712 4.4206 17.7189 4.85049C17.4015 4.50565 17.0265 4.24731 16.5939 4.07551C13.5314 2.97556 10.4688 2.97556 7.4064 4.07551C6.97384 4.24731 6.59884 4.50565 6.2814 4.85049C6.27714 4.59065 6.36306 4.3573 6.53921 4.15051C7.09004 3.64424 7.72285 3.30258 8.43765 3.12553C9.3549 2.89713 10.2768 2.75547 11.2033 2.70055Z" fill="currentColor"></path><path opacity="0.979" fill-rule="evenodd" clip-rule="evenodd" d="M11.0625 3.65055C12.6971 3.56991 14.3065 3.7449 15.8906 4.17553C16.3743 4.32528 16.8275 4.54198 17.25 4.82552C17.3846 4.95237 17.5018 5.09401 17.6016 5.25051C17.9785 6.89622 18.2441 8.56283 18.3984 10.2504C18.7482 12.1027 19.3575 13.8527 20.2266 15.5003C20.582 16.1419 20.9492 16.7753 21.3281 17.4002C19.5962 19.2492 17.5181 20.4325 15.0938 20.9501C15.0469 20.9335 15 20.9168 14.9531 20.9001C15.4657 18.6986 15.8016 16.4653 15.9609 14.2003C16.1855 11.6377 16.2324 9.07112 16.1016 6.50048C16.0871 6.46008 16.0637 6.42673 16.0312 6.40048C13.4004 5.36311 10.7597 5.33811 8.10938 6.32548C8.016 6.35418 7.94569 6.41253 7.89844 6.50048C7.70325 10.3364 7.89075 14.153 8.46094 17.9502C8.59936 18.9469 8.79469 19.9302 9.04688 20.9001C8.95683 20.9572 8.86308 20.9655 8.76562 20.9251C6.39703 20.3873 4.3658 19.2124 2.67188 17.4002C3.75878 15.6982 4.61034 13.8648 5.22656 11.9003C5.37366 11.3561 5.49867 10.8061 5.60156 10.2504C5.74959 8.56173 6.01519 6.89512 6.39844 5.25051C6.5828 4.95382 6.825 4.72882 7.125 4.57552C7.84448 4.23363 8.59448 4.0003 9.375 3.87554C9.94303 3.78703 10.5055 3.71203 11.0625 3.65055Z" fill="currentColor"></path><path opacity="0.967" fill-rule="evenodd" clip-rule="evenodd" d="M8.15625 10.7003C8.42109 11.1644 8.71012 11.6143 9.02344 12.0503C9.19687 12.252 9.38437 12.4354 9.58594 12.6003C11.1929 11.2044 12.8023 11.2044 14.4141 12.6003C14.6797 12.3836 14.9141 12.1336 15.1172 11.8503C15.3632 11.4755 15.5976 11.0922 15.8203 10.7003C15.9053 11.5108 15.7803 12.2775 15.4453 13.0003C15.0571 13.781 14.5336 14.4393 13.875 14.9752C12.0251 16.0239 10.4392 15.6822 9.11719 13.9502C8.73558 13.4197 8.43867 12.8364 8.22656 12.2003C8.1802 11.7014 8.15677 11.2014 8.15625 10.7003Z" fill="currentColor"></path><path opacity="0.947" fill-rule="evenodd" clip-rule="evenodd" d="M8.29688 13.3003C8.69794 13.9787 9.1823 14.587 9.75 15.1252C11.1824 16.1797 12.6355 16.213 14.1094 15.2252C14.748 14.6858 15.2715 14.0442 15.6797 13.3003C15.6297 14.2174 15.5515 15.134 15.4453 16.0502C13.7833 17.3136 11.9786 17.6053 10.0312 16.9252C9.49317 16.717 9.00098 16.4254 8.55469 16.0502C8.45044 15.1352 8.36447 14.2186 8.29688 13.3003Z" fill="currentColor"></path><path opacity="0.978" fill-rule="evenodd" clip-rule="evenodd" d="M24 23.15C24 23.4334 24 23.7166 24 24C22.7188 24 21.4375 24 20.1562 24C20.1641 23.2832 20.1562 22.5665 20.1328 21.85C20.0391 21.7167 19.9453 21.7167 19.8516 21.85C19.8281 22.5665 19.8203 23.2832 19.8281 24C14.6094 24 9.39061 24 4.17188 24C4.18747 23.2659 4.17184 22.5326 4.125 21.8C4.0245 21.7274 3.93856 21.744 3.86719 21.85C3.84375 22.5665 3.83594 23.2832 3.84375 24C2.5625 24 1.28125 24 0 24C0 23.7166 0 23.4334 0 23.15C0.0737981 22.3038 0.175361 21.4538 0.304688 20.6001C0.391415 20.0892 0.516412 19.5892 0.679688 19.1001C0.701494 19.0286 0.740559 18.9703 0.796875 18.9251C1.37698 18.549 1.92386 18.124 2.4375 17.6501C4.35433 19.714 6.66684 20.939 9.375 21.3251C9.40298 21.272 9.41859 21.2137 9.42188 21.1501C9.04748 19.6371 8.78967 18.1038 8.64844 16.5502C10.469 17.7668 12.383 17.9585 14.3906 17.1252C14.7299 16.9652 15.0502 16.7735 15.3516 16.5502C15.2103 18.1038 14.9525 19.6371 14.5781 21.1501C14.5824 21.3225 14.6684 21.3891 14.8359 21.3501C17.4553 20.8741 19.6975 19.6407 21.5625 17.6501C22.0762 18.124 22.623 18.549 23.2031 18.9251C23.2594 18.9703 23.2985 19.0286 23.3203 19.1001C23.4746 19.5916 23.5996 20.0916 23.6953 20.6001C23.8198 21.4544 23.9213 22.3044 24 23.15Z" fill="currentColor"></path></svg>