<svg width="26" height="26" viewBox="0 0 26 26" fill="none" xmlns="http://www.w3.org/2000/svg"><path opacity="0.317647" d="M12.9746 0L16.7578 3.73242L13.0254 0.0507812L9.26758 3.75781L12.9746 0Z" fill="currentColor"></path><path opacity="0.317647" d="M12.9746 2.99609L15.8437 5.81445L13.0254 3.04687L10.1816 5.83984L12.9746 2.99609Z" fill="currentColor"></path><path opacity="0.317647" d="M5.61133 5.33203L9.85156 5.35742L5.61133 5.38281V5.33203Z" fill="currentColor"></path><path opacity="0.317647" d="M20.6426 5.58594L20.668 9.82617H20.6172L20.6426 5.58594Z" fill="currentColor"></path><path opacity="0.317647" d="M5.9668 5.89062L10.0039 5.91602L5.94141 5.94141L5.91602 10.0039L5.89062 5.9668L5.9668 5.89062Z" fill="currentColor"></path><path opacity="0.317647" d="M16.0215 5.89062H20.0332L20.1094 5.9668L20.084 10.0039L20.0586 5.94141H16.0215V5.89062Z" fill="currentColor"></path><path opacity="0.317647" d="M14.752 8.48047L14.9297 8.50586L14.752 8.53125V8.48047Z" fill="currentColor"></path><path opacity="0.317647" d="M12.7715 8.53125L12.9492 8.55664L12.7715 8.58203V8.53125Z" fill="currentColor"></path><path opacity="0.317647" d="M14.5488 8.68359L14.5742 9.31836H14.5234L14.5488 8.68359Z" fill="currentColor"></path><path opacity="0.317647" d="M15.1074 8.73438L15.1328 9.31836H15.082L15.1074 8.73438Z" fill="currentColor"></path><path opacity="0.317647" d="M3.73242 9.24219L0.0507812 12.9746L3.75781 16.7324L0 13.0254L3.73242 9.24219Z" fill="currentColor"></path><path opacity="0.317647" d="M22.2676 9.24219L26 13.0254L22.2422 16.7324L25.9492 12.9746L22.2676 9.24219Z" fill="currentColor"></path><path opacity="0.317647" d="M5.81445 10.1562L3.04687 12.9746L5.83984 15.8184L2.99609 13.0254L5.81445 10.1562Z" fill="currentColor"></path><path opacity="0.317647" d="M20.1855 10.1562L23.0039 13.0254L20.1602 15.8184L22.9531 12.9746L20.1855 10.1562Z" fill="currentColor"></path><path opacity="0.317647" d="M23.6895 12.8984L23.7148 13.0762H23.6641L23.6895 12.8984Z" fill="currentColor"></path><path opacity="0.317647" d="M9.31836 13.1016L9.34375 13.2285H9.29297L9.31836 13.1016Z" fill="currentColor"></path><path opacity="0.317647" d="M23.6387 13.1523L20.668 16.1738L20.6426 20.4141L20.6172 16.1738L23.6387 13.1523Z" fill="currentColor"></path><path opacity="0.317647" d="M14.4473 13.6602L14.498 13.7109L17.6211 13.7363L14.3965 13.7617L14.4473 13.6602Z" fill="currentColor"></path><path opacity="0.317647" d="M12.5684 13.8633L12.5937 13.9395L12.0352 14.4473L12.5684 13.8633Z" fill="currentColor"></path><path opacity="0.317647" d="M17.9512 14.0156L17.9766 14.2441H17.9258L17.9512 14.0156Z" fill="currentColor"></path><path opacity="0.317647" d="M13.1777 14.2695L13.2031 14.3965H13.1523L13.1777 14.2695Z" fill="currentColor"></path><path opacity="0.317647" d="M13.5332 14.2695L16.0977 14.2949L15.8691 14.3711L15.8184 14.3203H13.5332V14.2695Z" fill="currentColor"></path><path opacity="0.317647" d="M13.2285 14.625L13.2539 14.752H13.2031L13.2285 14.625Z" fill="currentColor"></path><path opacity="0.317647" d="M12.7207 14.8789L12.7461 15.0059H12.6953L12.7207 14.8789Z" fill="currentColor"></path><path opacity="0.317647" d="M8.04883 14.9805L8.07422 15.1582H8.02344L8.04883 14.9805Z" fill="currentColor"></path><path opacity="0.317647" d="M8.60742 14.9805L8.63281 15.1074H8.58203L8.60742 14.9805Z" fill="currentColor"></path><path opacity="0.317647" d="M13.2793 14.9805L13.3047 15.1074H13.2539L13.2793 14.9805Z" fill="currentColor"></path><path opacity="0.317647" d="M8.04883 15.2344L8.07422 15.4629H8.02344L8.04883 15.2344Z" fill="currentColor"></path><path opacity="0.317647" d="M8.60742 15.2852L8.63281 15.4121H8.58203L8.60742 15.2852Z" fill="currentColor"></path><path opacity="0.317647" d="M12.7715 15.2852L12.7969 15.4121H12.7461L12.7715 15.2852Z" fill="currentColor"></path><path opacity="0.317647" d="M13.3301 15.3867L13.3555 15.5137H13.3047L13.3301 15.3867Z" fill="currentColor"></path><path opacity="0.317647" d="M12.8223 15.6914L12.8477 15.8691H12.7969L12.8223 15.6914Z" fill="currentColor"></path><path opacity="0.317647" d="M14.2441 15.8945L14.2695 16.1738H14.2188L14.2441 15.8945Z" fill="currentColor"></path><path opacity="0.317647" d="M5.91602 15.9961L5.94141 20.0586L10.0039 20.084L5.9668 20.1094L5.89062 20.0332L5.91602 15.9961Z" fill="currentColor"></path><path opacity="0.317647" d="M20.084 15.9961L20.1094 20.0332L20.0332 20.1094H16.0215V20.0586H20.0586L20.084 15.9961Z" fill="currentColor"></path><path opacity="0.317647" d="M9.41992 16.0977L9.75 16.123L9.41992 16.1484V16.0977Z" fill="currentColor"></path><path opacity="0.317647" d="M5.35742 16.1484L5.38281 20.3887H5.33203L5.35742 16.1484Z" fill="currentColor"></path><path opacity="0.317647" d="M13.584 16.3516C13.6449 16.4565 13.7042 16.4819 13.7617 16.4277L13.7363 16.5547L13.584 16.3516Z" fill="currentColor"></path><path opacity="0.317647" d="M9.36914 16.6562L9.75 16.6816L9.36914 16.707V16.6562Z" fill="currentColor"></path><path opacity="0.317647" d="M14.8535 16.9609L14.8789 17.0879H14.8281L14.8535 16.9609Z" fill="currentColor"></path><path opacity="0.317647" d="M10.1816 20.1602L13.0254 22.9531L15.8437 20.1855L12.9746 23.0039L10.1816 20.1602Z" fill="currentColor"></path><path opacity="0.317647" d="M5.61133 20.6172L9.85156 20.6426L5.61133 20.668V20.6172Z" fill="currentColor"></path><path opacity="0.317647" d="M16.1738 20.6172L20.4141 20.6426L16.1738 20.668V20.6172Z" fill="currentColor"></path><path opacity="0.317647" d="M9.26758 22.2422L13.0254 25.9492L16.7578 22.2676L12.9746 26L9.26758 22.2422Z" fill="currentColor"></path><path opacity="0.317647" d="M12.9238 23.6641L13.1016 23.6895L12.9238 23.7148V23.6641Z" fill="currentColor"></path><path opacity="0.768627" d="M13.5332 2.69141L16.1738 5.33203L20.4141 5.35742L16.1738 5.38281L13.5332 2.69141Z" fill="currentColor"></path><path opacity="0.768627" d="M5.35742 5.58594L5.38281 9.82617L2.33594 12.8223L5.33203 9.82617L5.35742 5.58594Z" fill="currentColor"></path><path opacity="0.768627" d="M12.5684 8.73438L12.5937 9.41992H12.543L12.5684 8.73438Z" fill="currentColor"></path><path opacity="0.768627" d="M14.1426 8.88672L14.168 9.44531L14.4219 9.4707L14.1934 9.49609L14.1172 9.41992L14.1426 8.88672Z" fill="currentColor"></path><path opacity="0.768627" d="M15.1074 9.34375L15.1328 9.4707H15.082L15.1074 9.34375Z" fill="currentColor"></path><path opacity="0.768627" d="M15.8184 10.8164L15.8437 11.0449H15.793L15.8184 10.8164Z" fill="currentColor"></path><path opacity="0.768627" d="M17.9004 11.2227L17.9258 11.3496H17.875L17.9004 11.2227Z" fill="currentColor"></path><path opacity="0.768627" d="M16.7324 12.7969L16.8594 12.8223L16.7324 12.8477V12.7969Z" fill="currentColor"></path><path opacity="0.768627" d="M8.96289 12.8477L9.14062 12.873L8.96289 12.8984V12.8477Z" fill="currentColor"></path><path opacity="0.768627" d="M13.2285 14.4727L13.2539 14.5996H13.2031L13.2285 14.4727Z" fill="currentColor"></path><path opacity="0.768627" d="M12.6191 14.6758L12.6953 14.7012L11.9082 15.4375L12.6191 14.6758Z" fill="currentColor"></path><path opacity="0.768627" d="M12.7207 15.0312L12.7461 15.1582H12.6953L12.7207 15.0312Z" fill="currentColor"></path><path opacity="0.768627" d="M8.60742 15.1328L8.63281 15.2598H8.58203L8.60742 15.1328Z" fill="currentColor"></path><path opacity="0.768627" d="M13.3301 15.2344L13.3555 15.3613H13.3047L13.3301 15.2344Z" fill="currentColor"></path><path opacity="0.768627" d="M12.7715 15.4375L12.7969 15.5645H12.7461L12.7715 15.4375Z" fill="currentColor"></path><path opacity="0.768627" d="M13.3809 15.6914L13.4062 15.8184H13.3555L13.3809 15.6914Z" fill="currentColor"></path><path d="M12.9746 0.0507812L16.7832 3.80859H22.1914V9.21679L25.9492 13.0254L22.1914 16.7832V22.1914H16.7832L12.9746 25.9492L9.21679 22.1914H3.80859V16.7832L0.0507812 12.9746L3.80859 9.21679V3.80859H9.21679L12.9746 0.0507812ZM12.9492 2.28516L9.85156 5.33203H5.58593L5.33203 5.63672V9.85156L2.28516 12.9492L2.33594 13.2031L5.33203 16.1992V20.4648L5.38281 20.5664L5.58593 20.668H9.85156L12.8984 23.7148H13.1523L16.1992 20.668H20.4648L20.5664 20.6172L20.668 20.4648V16.1992L23.7148 13.1523V12.8984L20.668 9.85156V5.58593L20.4141 5.33203H16.1992L13.2031 2.33594L12.9492 2.28516Z" fill="currentColor"></path><path d="M12.9746 3.04688L15.9707 5.9414H20.0586V10.0293L22.9531 13.0254L20.0586 15.9707V20.0586H15.9707L12.9746 22.9531L10.0293 20.0586H5.9414V15.9707L3.04688 12.9746L5.9414 10.0293V5.9414H10.0293L12.9746 3.04688ZM14.7266 8.48047L14.5234 8.68359V9.39453C14.4557 9.46224 14.3372 9.47916 14.168 9.44531L14.1172 8.78515L13.8633 8.58203L13.5586 8.78515V9.49609H13.3047L13.1523 9.39453V8.73437C13.1185 8.5651 12.9831 8.49739 12.7461 8.53125L12.543 8.78515C12.4753 9.22526 12.526 9.5638 12.6953 9.80078L13.1523 10.0547H14.625L14.8281 9.95312L15.1328 9.49609V8.73437L15.082 8.63281C15.0482 8.49739 14.9297 8.44661 14.7266 8.48047ZM11.4258 9.59765L11.1719 9.80078V10.0547C11.5781 10.7656 11.9167 11.5612 12.1875 12.4414L12.543 13.9648L11.0195 15.4375L10.3594 15.8945L9.85156 16.0976C9.44531 16.1654 9.17448 16.1146 9.03906 15.9453C8.83593 15.8437 8.70052 15.6745 8.63281 15.4375V14.9805L8.73437 14.625L9.34375 13.3047L9.29296 13L9.14062 12.8477L8.88672 12.8984C8.51432 13.5078 8.22656 14.1849 8.02343 14.9297C7.95573 15.4375 8.04036 15.8268 8.27734 16.0976C8.51432 16.4023 8.85286 16.6055 9.29296 16.707H9.85156L10.6641 16.4023L11.5273 15.793L12.6445 14.7266H12.6953L12.7969 15.9961C12.8646 16.3346 13 16.6224 13.2031 16.8594L13.6094 17.1641L14.4726 17.5195L14.7266 17.418L14.8789 17.1641V16.9609L14.625 16.707L14.2695 16.25C14.2357 15.9792 14.2695 15.793 14.3711 15.6914L14.7773 15.3359L15.5391 15.0312L17.7734 14.5742C17.9427 14.5065 18.0104 14.3203 17.9766 14.0156L17.6719 13.7109H14.4726L16.4531 12.543L16.5039 12.6953L16.7578 12.8477C16.8932 12.8477 16.9948 12.7969 17.0625 12.6953C17.0963 12.4583 17.0625 12.306 16.9609 12.2383L17.6211 11.832C17.7565 11.7305 17.8581 11.5781 17.9258 11.375L17.8242 11.0195L17.5703 10.7656L16.4531 10.4102L16.0976 10.4609L15.793 10.8672V11.0703L16.1992 11.9336L13.3555 13.6601C13.22 13.7279 13.1693 13.8802 13.2031 14.1172L13.5078 14.3203L15.793 14.3711C15.1836 14.4388 14.6758 14.625 14.2695 14.9297C13.7956 15.1667 13.5924 15.6575 13.6601 16.4023L13.7109 16.4531L13.4062 15.9961L13.2539 14.5234L12.8477 12.543C12.5768 11.5612 12.2213 10.6641 11.7812 9.85156L11.5781 9.59765H11.4258Z" fill="currentColor"></path><path d="M16.5292 11.0703L17.1639 11.2734L17.0878 11.4258L16.7323 11.6289C16.5935 11.4698 16.5258 11.2836 16.5292 11.0703Z" fill="currentColor"></path></svg>