<svg width="24" height="22" viewBox="0 0 24 22" fill="none" xmlns="http://www.w3.org/2000/svg"><path opacity="0.958" fill-rule="evenodd" clip-rule="evenodd" d="M11.7189 0.00940343C15.1234 -0.138323 17.0218 1.45452 17.4142 4.78795C17.6233 7.48666 16.9826 9.96098 15.4924 12.2109C15.0185 12.8349 14.4326 13.3221 13.7346 13.6723C11.7525 14.3535 10.151 13.8509 8.92986 12.1645C8.17288 11.0001 7.67286 9.73193 7.42986 8.36026C7.11566 6.83103 7.10005 5.30004 7.38299 3.76729C7.93513 1.49607 9.38043 0.243445 11.7189 0.00940343ZM11.6252 1.95794C14.5272 1.80671 16.0662 3.16759 16.2424 6.04057C16.3424 8.12439 15.7643 9.99563 14.508 11.6542C14.0431 12.2281 13.4572 12.6224 12.7502 12.8372C12.0806 12.9862 11.4556 12.8779 10.8752 12.5125C10.156 12.0016 9.58569 11.3598 9.16424 10.5871C8.08897 8.56893 7.87025 6.46573 8.50799 4.27762C9.0853 2.89407 10.1244 2.12084 11.6252 1.95794Z" fill="currentColor"></path><path opacity="0.957" fill-rule="evenodd" clip-rule="evenodd" d="M11.7188 2.2827C12.626 2.20731 13.4853 2.36969 14.2969 2.76983C15.0101 3.23015 15.4632 3.87191 15.6563 4.69517C13.3673 3.83062 11.0782 3.83062 8.78906 4.69517C8.97895 3.7157 9.54923 3.01206 10.5 2.58426C10.901 2.43866 11.3073 2.33814 11.7188 2.2827Z" fill="currentColor"></path><path opacity="0.966" fill-rule="evenodd" clip-rule="evenodd" d="M17.1562 9.6593C17.2148 9.66287 17.2539 9.69382 17.2734 9.75209C17.4204 10.1035 17.5532 10.4591 17.6719 10.8191C16.9997 13.8427 15.1403 15.7062 12.0938 16.4096C10.3293 16.7369 8.56369 16.7369 6.79688 16.4096C6.06295 16.2969 5.34422 16.1345 4.64062 15.9224C5.30152 15.1838 6.09839 14.6348 7.03125 14.2755C7.55241 13.9602 7.8727 13.504 7.99219 12.9069C8.07206 12.4307 8.11894 11.9513 8.13281 11.4687C8.61398 12.4087 9.29367 13.1742 10.1719 13.7651C11.8275 14.6273 13.3901 14.4881 14.8594 13.3476C15.964 12.3293 16.7296 11.0999 17.1562 9.6593Z" fill="currentColor"></path><path opacity="0.98" fill-rule="evenodd" clip-rule="evenodd" d="M17.8594 11.3759C17.6898 13.3003 17.2445 15.1715 16.5234 16.9895C15.1723 19.6966 12.9614 21.0575 9.89062 21.0721C9.21544 21.0575 8.54353 21.0034 7.875 20.9097C6.89625 20.7372 5.92753 20.5206 4.96875 20.2602C3.36017 19.9481 1.76642 19.9945 0.1875 20.3994C0.435142 19.229 0.966394 18.2083 1.78125 17.3374C2.4945 16.7024 3.33044 16.3235 4.28906 16.2008C6.58322 16.8703 8.91914 17.0946 11.2969 16.8735C14.1102 16.5542 16.1492 15.1546 17.4141 12.6749C17.6031 12.2546 17.7515 11.8216 17.8594 11.3759Z" fill="currentColor"></path><path opacity="0.969" fill-rule="evenodd" clip-rule="evenodd" d="M18.1406 12.1644C18.1874 12.163 18.2186 12.1862 18.2344 12.234C18.5259 13.0868 18.7994 13.9451 19.0547 14.8088C19.2337 15.1864 19.4759 15.5189 19.7813 15.8063C20.6107 16.4024 21.4231 17.0209 22.2188 17.662C22.6501 18.0576 23.0095 18.506 23.2969 19.0074C23.2779 19.0513 23.2466 19.0822 23.2031 19.1002C22.8799 19.1871 22.5518 19.2489 22.2188 19.2858C21.5387 19.3146 20.859 19.3068 20.1797 19.2626C18.7198 19.3318 17.3994 19.788 16.2188 20.6312C15.6848 20.8829 15.1223 20.9757 14.5313 20.9096C14.1312 20.8851 13.7406 20.8155 13.3594 20.7008C15.4733 19.589 16.8093 17.8725 17.3672 15.5511C17.7065 14.44 17.9643 13.3111 18.1406 12.1644Z" fill="currentColor"></path><path opacity="0.959" fill-rule="evenodd" clip-rule="evenodd" d="M24 21.1649C24 21.4433 24 21.7217 24 22C16 22 8.00002 22 0 22C0 21.8145 0 21.6289 0 21.4433C0.0424902 21.2495 0.0815527 21.0484 0.117188 20.8402C0.141532 20.7931 0.180594 20.7622 0.234375 20.7474C1.60612 20.3659 2.99674 20.2808 4.40625 20.4922C5.36072 20.7013 6.31383 20.9178 7.26562 21.1417C8.82628 21.4568 10.3888 21.4722 11.9531 21.1881C12.2294 21.1125 12.5029 21.0274 12.7734 20.933C13.6238 21.1803 14.491 21.2808 15.375 21.2345C15.6687 21.2005 15.9499 21.1232 16.2188 21.0026C17.3912 20.1363 18.7115 19.6646 20.1797 19.5876C20.8746 19.6344 21.5699 19.6421 22.2656 19.6108C22.6677 19.5754 23.0584 19.4903 23.4375 19.3556C23.5751 19.551 23.6767 19.7674 23.7422 20.0051C23.849 20.3937 23.9349 20.7803 24 21.1649Z" fill="currentColor"></path></svg>