<svg width="24" height="24" viewBox="0 0 24 24" fill="none" xmlns="http://www.w3.org/2000/svg"><path d="M11.5016 0.070447C11.2887 0.109167 10.9645 0.19145 10.7758 0.254371C10.3935 0.385055 2.85482 3.65214 2.78708 3.7199C2.71933 3.78766 2.89837 4.2378 3.09191 4.48464C3.29998 4.74601 3.64837 4.95413 4.01611 5.03158C4.2532 5.07998 4.36933 5.0703 5.23546 4.90089L6.19353 4.71697V4.02483C6.19353 3.35205 6.19837 3.32301 6.3145 3.21169L6.43062 3.09069H11.2258H16.0209L16.1371 3.21169L16.258 3.32785V4.56692V5.80116H17.1048C17.9419 5.80116 17.9564 5.80116 18.0726 5.92216C18.2177 6.06252 18.2274 6.28033 18.1016 6.43521L18.0097 6.55138L15.4451 6.57558C12.9484 6.59978 12.8758 6.60462 12.7451 6.70142C12.4935 6.89019 12.4113 7.04507 12.4113 7.34516C12.4113 7.57748 12.4355 7.65493 12.5516 7.80497C12.8032 8.13894 12.5903 8.12442 16.9597 8.12442H20.9032V5.41395V2.70348H20.0951H19.2822L16.7419 1.52248C15.3435 0.873908 14.0613 0.293092 13.8871 0.235011C13.1468 -0.0021553 12.2516 -0.0650768 11.5016 0.070447Z" fill="currentColor"></path><path d="M22.1371 1.60957C21.9387 1.69669 21.7355 1.94354 21.7016 2.13714C21.6871 2.22426 21.6774 3.75374 21.6871 5.53975L21.7016 8.78748L21.842 8.96656C22.0597 9.25697 22.1855 9.28601 23.1533 9.28601H24V5.41391V1.54181H23.1436C22.5387 1.54665 22.2387 1.56601 22.1371 1.60957Z" fill="currentColor"></path><path d="M6.96777 10.6413V17.4175H7.35487H7.74197V11.7352C7.74197 5.25908 7.69842 5.87378 8.17745 5.79633C8.6081 5.72857 8.83068 5.50593 8.89842 5.07516C8.971 4.61534 8.84519 4.63954 11.2258 4.63954C13.6065 4.63954 13.4807 4.61534 13.5533 5.07031C13.6016 5.37524 13.7807 5.63661 14.0129 5.73341C14.1242 5.78181 14.3807 5.80117 14.8307 5.80117H15.4839V4.83315V3.86512H11.2258H6.96777V10.6413Z" fill="currentColor"></path><path d="M9.51773 5.67049C9.36773 5.99962 9.1016 6.26583 8.77256 6.41587L8.51611 6.53203V11.9772V17.4175H11.2258H13.9355V13.163V8.90854L13.3451 8.88918C12.779 8.86981 12.7355 8.86014 12.4451 8.70525C12.1113 8.53101 11.9177 8.32288 11.7484 7.97923C11.5887 7.65494 11.5935 7.03057 11.758 6.6966C11.9564 6.28519 12.508 5.84958 12.8177 5.84958C12.958 5.84958 12.9774 5.77697 12.8855 5.58821L12.8032 5.41396H11.221H9.63386L9.51773 5.67049ZM12.0193 9.8572C12.4597 10.0605 12.7403 10.3412 12.958 10.7768C13.1274 11.1253 13.1371 11.1689 13.1371 11.6093C13.1371 12.0498 13.1274 12.0933 12.958 12.4418C12.7403 12.8823 12.4597 13.1533 12.0097 13.3663C11.7145 13.5067 11.6419 13.5212 11.2258 13.5212C10.8097 13.5212 10.7371 13.5067 10.4419 13.3663C9.99192 13.1533 9.71127 12.8823 9.49353 12.4418C9.32418 12.0933 9.3145 12.0498 9.3145 11.6142C9.3145 11.1931 9.32902 11.1205 9.46934 10.8252C9.66289 10.4138 9.93869 10.1137 10.3016 9.92496C10.679 9.72168 10.8919 9.67328 11.3322 9.69264C11.6274 9.70716 11.7774 9.74588 12.0193 9.8572Z" fill="currentColor"></path><path d="M10.8388 10.5106C10.6017 10.588 10.1952 11.0043 10.1226 11.2511C9.98716 11.7061 10.0839 12.0691 10.4275 12.4079C10.921 12.9065 11.6033 12.8968 12.063 12.3837C12.4984 11.8997 12.4984 11.3189 12.063 10.8349C11.7484 10.4864 11.2984 10.3654 10.8388 10.5106Z" fill="currentColor"></path><path d="M14.7096 13.1581V17.4175H15.3628C15.9967 17.4175 16.0257 17.4223 16.137 17.5385C16.2967 17.6933 16.2967 17.916 16.137 18.0709L16.0209 18.1919H10.4515H4.88219L4.76606 18.0709C4.60638 17.916 4.60638 17.6933 4.76606 17.5385C4.87735 17.4223 4.90638 17.4175 5.54025 17.4175H6.19348V16.4494V15.4814H3.67735H1.16606L1.11767 15.6605C1.08864 15.7621 0.837028 16.7689 0.556383 17.9015C0.275738 19.0341 0.0338022 19.9972 0.0192861 20.0408C-0.00490748 20.1231 0.512834 20.1279 10.4515 20.1279C20.3903 20.1279 20.908 20.1231 20.8838 20.0408C20.8693 19.9972 20.6274 19.0341 20.3467 17.9015C20.0661 16.7689 19.8144 15.7621 19.7854 15.6605L19.737 15.4814H17.6128H15.4838V12.1901V8.89883H15.0967H14.7096V13.1581Z" fill="currentColor"></path><path d="M0 22.4512V24H10.4516H20.9032V22.4512V20.9023H10.4516H0V22.4512Z" fill="currentColor"></path></svg>